<svg width="20" height="24" viewBox="0 0 20 24" fill="none" xmlns="http://www.w3.org/2000/svg">
<path d="M9.99984 23.6665C11.2832 23.6665 12.3332 22.6165 12.3332 21.3332H7.6665C7.6665 21.952 7.91234 22.5455 8.34992 22.9831C8.78751 23.4207 9.381 23.6665 9.99984 23.6665ZM16.9998 16.6665V10.8332C16.9998 7.2515 15.0865 4.25317 11.7498 3.45984V2.6665C11.7498 1.69817 10.9682 0.916504 9.99984 0.916504C9.0315 0.916504 8.24984 1.69817 8.24984 2.6665V3.45984C4.9015 4.25317 2.99984 7.23984 2.99984 10.8332V16.6665L0.666504 18.9998V20.1665H19.3332V18.9998L16.9998 16.6665Z" fill="white"/>
</svg>
