<svg width="26" height="26" viewBox="0 0 26 26" fill="none" xmlns="http://www.w3.org/2000/svg">
<path d="M13.0012 26C5.82452 25.9922 0.0078007 20.1763 0 13.0006V12.7406C0.143013 5.59739 6.02604 -0.0924576 13.1702 0.00113833C20.3169 0.0973341 26.0465 5.94058 25.9997 13.0851C25.9529 20.2309 20.1479 26 13.0012 26ZM12.9804 23.4001H13.0012C15.7588 23.3974 18.4024 22.2998 20.3508 20.3486C22.2993 18.3975 23.3931 15.7526 23.3917 12.9954C23.3903 10.2381 22.2939 7.59432 20.3435 5.64515C18.3931 3.69598 15.7484 2.60103 12.9908 2.60103C10.2332 2.60103 7.58843 3.69598 5.63803 5.64515C3.68763 7.59432 2.59121 10.2381 2.58983 12.9954C2.58845 15.7526 3.68223 18.3975 5.63068 20.3486C7.57913 22.2998 10.2228 23.3974 12.9804 23.4001ZM14.3013 20.8002H11.701V18.2003H14.3013V20.8002ZM14.3013 16.9004H11.701C11.6809 16.0691 11.8836 15.2475 12.2883 14.5211C12.693 13.7946 13.2848 13.1897 14.0022 12.7692C14.8603 12.1114 15.6014 11.5446 15.6014 10.4007C15.6014 9.71115 15.3274 9.04986 14.8398 8.56229C14.3522 8.07471 13.6908 7.8008 13.0012 7.8008C12.3115 7.8008 11.6502 8.07471 11.1625 8.56229C10.6749 9.04986 10.4009 9.71115 10.4009 10.4007H7.80069V10.2837C7.81621 8.90462 8.379 7.5882 9.36524 6.62403C10.3515 5.65985 11.6804 5.1269 13.0597 5.14241C14.4389 5.15793 15.7555 5.72064 16.7198 6.70676C17.6841 7.69287 18.2171 9.02162 18.2016 10.4007C18.1557 11.0924 17.9483 11.7637 17.5961 12.3608C17.2439 12.9579 16.7567 13.4642 16.1734 13.839C15.6461 14.17 15.2026 14.6187 14.8778 15.1499C14.5529 15.681 14.3556 16.2802 14.3013 16.9004Z" fill="white"/>
</svg>
