<svg width="26" height="26" viewBox="0 0 26 26" fill="none" xmlns="http://www.w3.org/2000/svg">
<path d="M13.0167 0C13.9954 0.0112793 14.9702 0.12435 15.9254 0.337384C16.3424 0.43038 16.6542 0.778015 16.7016 1.20262L16.9285 3.23841C17.0312 4.17315 17.8204 4.88112 18.7613 4.88211C19.0142 4.8825 19.2644 4.82984 19.4981 4.72644L21.3656 3.90608C21.754 3.73546 22.2078 3.82848 22.4977 4.13815C23.8473 5.57952 24.8524 7.3082 25.4374 9.19411C25.5635 9.60077 25.4184 10.0427 25.0756 10.2953L23.4203 11.5155C22.9481 11.8624 22.6693 12.4133 22.6693 12.9993C22.6693 13.5852 22.9481 14.1362 23.4214 14.4839L25.0781 15.7044C25.421 15.957 25.5662 16.399 25.4401 16.8057C24.8553 18.6913 23.8508 20.4199 22.502 21.8615C22.2123 22.1711 21.7588 22.2643 21.3705 22.0942L19.4954 21.2727C18.9589 21.0379 18.3428 21.0723 17.8359 21.3653C17.3289 21.6583 16.9915 22.1749 16.9271 22.757L16.7017 24.7925C16.6552 25.2123 16.35 25.5576 15.9392 25.6553C14.0079 26.1148 11.9958 26.1148 10.0645 25.6553C9.6537 25.5576 9.34855 25.2123 9.30207 24.7925L9.07697 22.76C9.01085 22.179 8.67294 21.664 8.16639 21.372C7.65983 21.08 7.04476 21.0457 6.51009 21.2792L4.63459 22.1009C4.24612 22.2711 3.79253 22.1777 3.50286 21.8679C2.15332 20.4246 1.14875 18.694 0.564756 16.8064C0.438971 16.3998 0.584304 15.9582 0.92695 15.7057L2.58473 14.4844C3.05691 14.1375 3.33579 13.5865 3.33579 13.0006C3.33579 12.4147 3.05691 11.8637 2.58411 11.5163L0.92737 10.2971C0.584216 10.0446 0.43875 9.60238 0.564978 9.19544C1.14998 7.30953 2.15508 5.58086 3.50466 4.13949C3.79461 3.82981 4.24841 3.73679 4.63681 3.90741L6.50398 4.72763C7.04124 4.96341 7.65889 4.92779 8.16818 4.63025C8.67527 4.33612 9.01287 3.81896 9.07804 3.23686L9.30481 1.20262C9.35217 0.7778 9.6643 0.430054 10.0816 0.337256C11.0379 0.12456 12.0138 0.0115383 13.0167 0ZM13.0001 8.99993C10.7909 8.99993 9.00008 10.7908 9.00008 12.9999C9.00008 15.2091 10.7909 16.9999 13.0001 16.9999C15.2092 16.9999 17.0001 15.2091 17.0001 12.9999C17.0001 10.7908 15.2092 8.99993 13.0001 8.99993Z" fill="white"/>
</svg>
