<svg width="124" height="124" viewBox="0 0 124 124" fill="none" xmlns="http://www.w3.org/2000/svg">
<path fill-rule="evenodd" clip-rule="evenodd" d="M0 62C0 96.224 27.776 124 62 124C96.224 124 124 96.224 124 62C124 27.776 96.224 0 62 0C27.776 0 0 27.776 0 62ZM80.6 37.2C80.6 47.492 72.292 55.8 62 55.8C51.708 55.8 43.4 47.492 43.4 37.2C43.4 26.908 51.708 18.6 62 18.6C72.292 18.6 80.6 26.908 80.6 37.2ZM24.8 86.676C24.986 74.338 49.6 67.58 62 67.58C74.338 67.58 99.014 74.338 99.2 86.676C91.202 98.704 77.5 106.64 62 106.64C46.5 106.64 32.798 98.704 24.8 86.676Z" fill="#CBD5E0"/>
</svg>
