<svg width="50" height="50" viewBox="0 0 50 50" fill="none" xmlns="http://www.w3.org/2000/svg">
<path fill-rule="evenodd" clip-rule="evenodd" d="M17.2217 36.1117C19.0626 36.1117 20.555 34.6193 20.555 32.7783C20.555 30.9374 19.0626 29.445 17.2217 29.445C15.3807 29.445 13.8883 30.9374 13.8883 32.7783C13.8883 34.6193 15.3807 36.1117 17.2217 36.1117ZM17.2217 34.445C18.1422 34.445 18.8883 33.6988 18.8883 32.7783C18.8883 31.8578 18.1422 31.1117 17.2217 31.1117C16.3012 31.1117 15.555 31.8578 15.555 32.7783C15.555 33.6988 16.3012 34.445 17.2217 34.445Z" fill="#FF0691"/>
<path d="M18.8883 32.7783C18.8883 33.6988 18.1422 34.445 17.2217 34.445C16.3012 34.445 15.555 33.6988 15.555 32.7783C15.555 31.8578 16.3012 31.1117 17.2217 31.1117C18.1422 31.1117 18.8883 31.8578 18.8883 32.7783Z" fill="#FF0691"/>
<path fill-rule="evenodd" clip-rule="evenodd" d="M43.3333 13.3333C47.0152 13.3333 50 10.3486 50 6.66667C50 2.98477 47.0152 0 43.3333 0C39.6514 0 36.6667 2.98477 36.6667 6.66667C36.6667 10.3486 39.6514 13.3333 43.3333 13.3333ZM43.3333 10C45.1743 10 46.6667 8.50762 46.6667 6.66667C46.6667 4.82572 45.1743 3.33333 43.3333 3.33333C41.4924 3.33333 40 4.82572 40 6.66667C40 8.50762 41.4924 10 43.3333 10Z" fill="#FF0691"/>
<path d="M46.6667 6.66667C46.6667 8.50762 45.1743 10 43.3333 10C41.4924 10 40 8.50762 40 6.66667C40 4.82572 41.4924 3.33333 43.3333 3.33333C45.1743 3.33333 46.6667 4.82572 46.6667 6.66667Z" fill="#FF0691"/>
<path fill-rule="evenodd" clip-rule="evenodd" d="M20.4545 50.0009C31.7513 50.0009 40.9091 40.8431 40.9091 29.5463C40.9091 18.2496 31.7513 9.0918 20.4545 9.0918C9.15781 9.0918 0 18.2496 0 29.5463C0 40.8431 9.15781 50.0009 20.4545 50.0009ZM20.4545 43.1827C20.6641 43.1827 20.8726 43.178 21.0799 43.1686C28.3208 42.8418 34.0909 36.8679 34.0909 29.5463C34.0909 22.0152 27.9857 15.91 20.4545 15.91C15.5565 15.91 11.2616 18.4924 8.85708 22.37C8.68854 22.6418 8.52929 22.9199 8.37977 23.204C7.38255 25.0986 6.81818 27.2566 6.81818 29.5463C6.81818 31.772 7.3514 33.8732 8.29705 35.729C8.52383 36.174 8.77432 36.605 9.04687 37.0201C11.3594 40.5427 15.2596 42.9298 19.73 43.1638C19.9699 43.1764 20.2115 43.1827 20.4545 43.1827Z" fill="#FF0691"/>
<path d="M21.0799 43.1686C28.3208 42.8418 34.0909 36.8679 34.0909 29.5463C34.0909 22.0152 27.9857 15.91 20.4545 15.91C15.5565 15.91 11.2616 18.4924 8.85708 22.37C9.11605 22.0392 9.43909 21.7555 9.81464 21.5386L18.75 16.3798C19.7813 15.7844 21.052 15.7844 22.0833 16.3798L31.0187 21.5386C32.05 22.1341 32.6854 23.2345 32.6854 24.4254V34.7431C32.6854 35.9339 32.05 37.0344 31.0187 37.6298L22.0833 42.7886C21.7668 42.9714 21.4277 43.0981 21.0799 43.1686Z" fill="#FF0691"/>
<path d="M6.81818 29.5463C6.81818 31.772 7.3514 33.8732 8.29705 35.729C8.19951 35.4141 8.14797 35.0822 8.14797 34.7431V24.4254C8.14797 24.0005 8.22886 23.5871 8.37977 23.204C7.38255 25.0986 6.81818 27.2566 6.81818 29.5463Z" fill="#FF0691"/>
<path d="M18.75 42.7886L9.81464 37.6298C9.52593 37.4631 9.26826 37.2569 9.04687 37.0201C11.3594 40.5427 15.2596 42.9298 19.73 43.1638C19.3904 43.0923 19.0594 42.9673 18.75 42.7886Z" fill="#FF0691"/>
<path fill-rule="evenodd" clip-rule="evenodd" d="M19.73 43.1638C20.1749 43.2574 20.6346 43.259 21.0799 43.1686C20.8726 43.178 20.6641 43.1827 20.4545 43.1827C20.2115 43.1827 19.9699 43.1764 19.73 43.1638ZM9.04687 37.0201C8.70264 36.652 8.44612 36.2103 8.29705 35.729C8.52383 36.174 8.77432 36.605 9.04687 37.0201ZM8.37977 23.204C8.52929 22.9199 8.68854 22.6418 8.85708 22.37C8.65862 22.6234 8.49778 22.9044 8.37977 23.204Z" fill="#FF0691"/>
</svg>
